# xmcd
#
# Track frame offsets:
# 151
# 9548
# 27983
# 38008
# 49931
# 69238
# 92457
# 108704
# 115939
# 130594
# 142765
# 162810
#
# Disc length: 2401 seconds
#
#
# Revision: 0
# Processed by: cddbd v1.5.1PL0 Copyright (c) Steve Scherf et al.
# Submitted via: FreeRIP 2.942 
#
DISCID=90095f0c
DTITLE=Mars Ill - Sound Method V.1
DYEAR=2003
DGENRE=hip hop
TTITLE0=A Sound Method
TTITLE1=Chain Gang
TTITLE2=SpellBound
TTITLE3=Stand Still
TTITLE4=The Calm Before
TTITLE5=Mona Lisa ft. Playdough/Lil Sci/Jax
TTITLE6=Backwater
TTITLE7=It's Okay
TTITLE8=Souled Seperatly
TTITLE9=Tales From Cloud 7
TTITLE10=My Life
TTITLE11=Our Sing
EXTD=2003
EXTT0=
EXTT1=
EXTT2=
EXTT3=
EXTT4=
EXTT5=
EXTT6=
EXTT7=
EXTT8=
EXTT9=
EXTT10=
EXTT11=
PLAYORDER=
